<svg xmlns="http://www.w3.org/2000/svg" viewBox="0 0 512 512" role="img" aria-label="Maki">
  <defs>
    <linearGradient id="bg" x1="64" y1="48" x2="448" y2="464" gradientUnits="userSpaceOnUse">
      <stop stop-color="#8b7cff"/>
      <stop offset="1" stop-color="#5447d8"/>
    </linearGradient>
    <linearGradient id="heart" x1="162" y1="164" x2="350" y2="360" gradientUnits="userSpaceOnUse">
      <stop stop-color="#ffffff"/>
      <stop offset="1" stop-color="#f5ddff"/>
    </linearGradient>
  </defs>
  <rect width="512" height="512" rx="116" fill="#1a1a2e"/>
  <rect x="56" y="56" width="400" height="400" rx="104" fill="url(#bg)"/>
  <path fill="url(#heart)" d="M256 376c-14-13-88-70-118-111-35-48-13-112 44-123 31-6 59 8 74 32 15-24 43-38 74-32 57 11 79 75 44 123-30 41-104 98-118 111Z"/>
  <circle cx="192" cy="223" r="20" fill="#6b5fe8"/>
  <circle cx="320" cy="223" r="20" fill="#6b5fe8"/>
  <path d="M201 292c31 25 79 25 110 0" fill="none" stroke="#6b5fe8" stroke-width="18" stroke-linecap="round"/>
</svg>
